<?xml version="1.0" encoding="utf-8"?>
<!-- Generator: Adobe Illustrator 22.0.0, SVG Export Plug-In . SVG Version: 6.00 Build 0)  -->
<svg version="1.1" id="Layer_2" xmlns="http://www.w3.org/2000/svg" xmlns:xlink="http://www.w3.org/1999/xlink" x="0px" y="0px"
	 viewBox="0 0 1024 1024" style="enable-background:new 0 0 1024 1024;" xml:space="preserve">
<style type="text/css">
	.st0{fill:none;stroke:url(#SVGID_1_);stroke-width:23;stroke-linecap:round;stroke-linejoin:round;stroke-miterlimit:10;}
	.st1{fill:none;stroke:url(#SVGID_2_);stroke-width:23;stroke-linecap:round;stroke-linejoin:round;stroke-miterlimit:10;}
	.st2{fill:none;stroke:url(#SVGID_3_);stroke-width:23;stroke-linecap:round;stroke-linejoin:round;stroke-miterlimit:10;}
	.st3{fill:none;stroke:url(#SVGID_4_);stroke-width:23;stroke-linecap:round;stroke-linejoin:round;stroke-miterlimit:10;}
	.st4{fill:none;stroke:url(#SVGID_5_);stroke-width:23;stroke-linecap:round;stroke-linejoin:round;stroke-miterlimit:10;}
	.st5{fill:none;stroke:url(#SVGID_6_);stroke-width:23;stroke-linecap:round;stroke-linejoin:round;stroke-miterlimit:10;}
</style>
<g>
	<g id="Layer_1_2_">
		<linearGradient id="SVGID_1_" gradientUnits="userSpaceOnUse" x1="320.8037" y1="159.9962" x2="666.6691" y2="759.0526">
			<stop  offset="0" style="stop-color:#9BE0FF"/>
			<stop  offset="0.1387" style="stop-color:#96DBFB"/>
			<stop  offset="0.2982" style="stop-color:#89CDF1"/>
			<stop  offset="0.4678" style="stop-color:#73B6E0"/>
			<stop  offset="0.6446" style="stop-color:#5496C7"/>
			<stop  offset="0.825" style="stop-color:#2D6DA8"/>
			<stop  offset="1" style="stop-color:#003E85"/>
		</linearGradient>
		<polyline class="st0" points="371.8,703 283.3,703 283.3,443 188.8,443 313.3,345.5 313.3,225.5 291.7,225.5 291.7,190.1 
			422.7,190.1 422.7,225.5 402.6,225.5 402.6,275.6 512,190.1 835.2,443 740.7,443 740.7,703 656,703 		"/>
		<linearGradient id="SVGID_2_" gradientUnits="userSpaceOnUse" x1="411.5721" y1="495.1049" x2="612.4963" y2="843.1159">
			<stop  offset="0" style="stop-color:#9BE0FF"/>
			<stop  offset="0.1387" style="stop-color:#96DBFB"/>
			<stop  offset="0.2982" style="stop-color:#89CDF1"/>
			<stop  offset="0.4678" style="stop-color:#73B6E0"/>
			<stop  offset="0.6446" style="stop-color:#5496C7"/>
			<stop  offset="0.825" style="stop-color:#2D6DA8"/>
			<stop  offset="1" style="stop-color:#003E85"/>
		</linearGradient>
		<path class="st1" d="M599.6,833.9H424.5c-12.1,0-21.8-9.8-21.8-21.8v-286c0-12.1,9.8-21.8,21.8-21.8h175.1
			c12.1,0,21.8,9.8,21.8,21.8v286C621.4,824.2,611.6,833.9,599.6,833.9z"/>
		<linearGradient id="SVGID_3_" gradientUnits="userSpaceOnUse" x1="446.6103" y1="531.9452" x2="577.3952" y2="758.4713">
			<stop  offset="0" style="stop-color:#9BE0FF"/>
			<stop  offset="0.1387" style="stop-color:#96DBFB"/>
			<stop  offset="0.2982" style="stop-color:#89CDF1"/>
			<stop  offset="0.4678" style="stop-color:#73B6E0"/>
			<stop  offset="0.6446" style="stop-color:#5496C7"/>
			<stop  offset="0.825" style="stop-color:#2D6DA8"/>
			<stop  offset="1" style="stop-color:#003E85"/>
		</linearGradient>
		<path class="st2" d="M560.7,751.5h-97.4c-12.1,0-21.8-9.8-21.8-21.8V560.8c0-12.1,9.8-21.8,21.8-21.8h97.4
			c12.1,0,21.8,9.8,21.8,21.8v168.9C582.5,741.7,572.8,751.5,560.7,751.5z"/>
		<linearGradient id="SVGID_4_" gradientUnits="userSpaceOnUse" x1="501.2044" y1="780.4265" x2="522.7955" y2="817.8234">
			<stop  offset="0" style="stop-color:#9BE0FF"/>
			<stop  offset="0.1387" style="stop-color:#96DBFB"/>
			<stop  offset="0.2982" style="stop-color:#89CDF1"/>
			<stop  offset="0.4678" style="stop-color:#73B6E0"/>
			<stop  offset="0.6446" style="stop-color:#5496C7"/>
			<stop  offset="0.825" style="stop-color:#2D6DA8"/>
			<stop  offset="1" style="stop-color:#003E85"/>
		</linearGradient>
		<circle class="st3" cx="512" cy="799.1" r="10.1"/>
		<linearGradient id="SVGID_5_" gradientUnits="userSpaceOnUse" x1="482.0722" y1="350.3737" x2="539.7798" y2="450.3263">
			<stop  offset="0" style="stop-color:#9BE0FF"/>
			<stop  offset="0.1387" style="stop-color:#96DBFB"/>
			<stop  offset="0.2982" style="stop-color:#89CDF1"/>
			<stop  offset="0.4678" style="stop-color:#73B6E0"/>
			<stop  offset="0.6446" style="stop-color:#5496C7"/>
			<stop  offset="0.825" style="stop-color:#2D6DA8"/>
			<stop  offset="1" style="stop-color:#003E85"/>
		</linearGradient>
		<path class="st4" d="M600.2,402.2c-48.8-48.8-127.6-48.7-176.4,0.1"/>
		<linearGradient id="SVGID_6_" gradientUnits="userSpaceOnUse" x1="488.8395" y1="406.3139" x2="533.6858" y2="483.9899">
			<stop  offset="0" style="stop-color:#9BE0FF"/>
			<stop  offset="0.1387" style="stop-color:#96DBFB"/>
			<stop  offset="0.2982" style="stop-color:#89CDF1"/>
			<stop  offset="0.4678" style="stop-color:#73B6E0"/>
			<stop  offset="0.6446" style="stop-color:#5496C7"/>
			<stop  offset="0.825" style="stop-color:#2D6DA8"/>
			<stop  offset="1" style="stop-color:#003E85"/>
		</linearGradient>
		<path class="st5" d="M575.7,446.5c-35.2-35.2-92.1-35.1-127.3,0.1"/>
	</g>
</g>
</svg>
